# xmcd
#
# Track frame offsets: 
#        150
#        10386
#        23237
#        36331
#        52696
#        65128
#        80897
#        93467
#        103619
#        118570
#        131529
#        147097
#        158835
#        176082
#        194425
#
# Disc length: 2886 seconds
#
# Revision: 4
# Processed by: cddbd v1.5.2PL0 Copyright (c) Steve Scherf et al.
# Submitted via: ExactAudioCopy v0.99pb5
#
DISCID=cf0b440f
DTITLE=Various Artist - Country Christmas
DYEAR=1900
DGENRE=Country
TTITLE0=Glenn Campbell - Santa Claus Is Coming To Town
TTITLE1=John Denver - Marvelous Toy
TTITLE2=Dave Dudley - Can I Sing A Christmas Song For You
TTITLE3=Hadley Castille and The Louisiana Cajun Band - Silverbells
TTITLE4=Johnny Cash - Here Was A Man
TTITLE5=John Denver - The Children Of Bethlehem
TTITLE6=Roy Clark - Jingle Bells
TTITLE7=Dave Dudley - Six Tons Of Toy
TTITLE8=Hadley Castille and The Louisiana Cajun Band - I Saw Mommy Kissi
TTITLE8=ng Santa Claus
TTITLE9=Glen Campbell - Sleigh Ride
TTITLE10=Johnny Paycheck - Honky Tonk Christmas
TTITLE11=Gene Autry - Up On The House Top
TTITLE12=Johnny Cash - White Christmas
TTITLE13=John Denver - The Christmas Song
TTITLE14=Janie Fricke - It Came Upon A Midnight Clear
EXTD=
EXTT0=
EXTT1=
EXTT2=
EXTT3=
EXTT4=
EXTT5=
EXTT6=
EXTT7=
EXTT8=
EXTT9=
EXTT10=
EXTT11=
EXTT12=
EXTT13=
EXTT14=
PLAYORDER=
